<svg width="27" height="27" viewBox="0 0 27 27" fill="none" xmlns="http://www.w3.org/2000/svg">
<path d="M24 0.666687H2.99999C1.71082 0.666687 0.666656 1.71085 0.666656 3.00002V24C0.666656 25.2892 1.71082 26.3334 2.99999 26.3334H14.6667V15.8334H11.1667V12.3334H14.6667V10.4539C14.6667 6.89552 16.4003 5.33335 19.3578 5.33335C20.7742 5.33335 21.5232 5.43835 21.8778 5.48619V8.83335H19.8607C18.6053 8.83335 18.1667 9.49602 18.1667 10.8377V12.3334H21.8463L21.347 15.8334H18.1667V26.3334H24C25.2892 26.3334 26.3333 25.2892 26.3333 24V3.00002C26.3333 1.71085 25.288 0.666687 24 0.666687Z" fill="black"/>
</svg>
