<svg width="27" height="27" viewBox="0 0 27 27" fill="none" xmlns="http://www.w3.org/2000/svg">
<path d="M24 0.666687H3.00002C1.71085 0.666687 0.666687 1.71085 0.666687 3.00002V24C0.666687 25.2892 1.71085 26.3334 3.00002 26.3334H24C25.2892 26.3334 26.3334 25.2892 26.3334 24V3.00002C26.3334 1.71085 25.2892 0.666687 24 0.666687ZM8.77969 21.6667H5.33802V10.5927H8.77969V21.6667ZM7.02385 9.00952C5.91435 9.00952 5.01719 8.11002 5.01719 7.00285C5.01719 5.89569 5.91552 4.99735 7.02385 4.99735C8.12985 4.99735 9.02935 5.89685 9.02935 7.00285C9.02935 8.11002 8.12985 9.00952 7.02385 9.00952ZM21.6714 21.6667H18.232V16.2814C18.232 14.9969 18.2087 13.3449 16.4435 13.3449C14.6527 13.3449 14.3774 14.7437 14.3774 16.188V21.6667H10.938V10.5927H14.2397V12.1059H14.2864C14.746 11.2355 15.8684 10.3174 17.5425 10.3174C21.0274 10.3174 21.6714 12.611 21.6714 15.593V21.6667Z" fill="black"/>
</svg>
