<svg width="27" height="27" viewBox="0 0 27 27" fill="none" xmlns="http://www.w3.org/2000/svg">
<path d="M3.00002 0.666687C1.71085 0.666687 0.666687 1.71085 0.666687 3.00002V24C0.666687 25.2892 1.71085 26.3334 3.00002 26.3334H24C25.2892 26.3334 26.3334 25.2892 26.3334 24V3.00002C26.3334 1.71085 25.2892 0.666687 24 0.666687H3.00002ZM6.08986 6.50002H11.4697L14.6097 10.989L18.4948 6.50002H20.1878L15.3708 12.0781L21.2634 20.5H15.8835L12.3994 15.5189L8.09735 20.5H6.37697L11.6338 14.4274L6.08986 6.50002ZM8.69208 7.88088L16.5716 19.1123H18.6589L10.777 7.88088H8.69208Z" fill="black"/>
</svg>
