<svg width="168" height="159" viewBox="0 0 168 159" fill="none" xmlns="http://www.w3.org/2000/svg">
<path d="M51 150L4 100H60.5L25 16L92 67L101.5 5.5L132 67L153.5 16L166.5 83.5" stroke="#F1F38D" stroke-width="3"/>
<path d="M75.5335 158.213L75.7127 145.967L63.4665 145.787L63.2873 158.033L75.5335 158.213ZM19 100L19.249 98.5208L14.7346 97.761L17.9239 101.045L19 100ZM69.5 108.5L69.251 109.979L72.0553 110.451L70.8614 107.87L69.5 108.5ZM35.5 35L36.4017 33.8013L34.1386 35.6298L35.5 35ZM92 77.5L91.0983 78.6987L93.5 80.5053V77.5H92ZM92 16L93.2528 15.175L90.5 10.9949V16H92ZM132.5 77.5L131.247 78.325L133.215 81.3126L133.967 77.8152L132.5 77.5ZM144 24L145.46 23.6543L142.533 23.6848L144 24ZM162 100L166.97 83.4079L150.116 87.3997L162 100ZM70.5761 150.955L20.0761 98.955L17.9239 101.045L68.4239 153.045L70.5761 150.955ZM18.751 101.479L69.251 109.979L69.749 107.021L19.249 98.5208L18.751 101.479ZM70.8614 107.87L36.8614 34.3702L34.1386 35.6298L68.1386 109.13L70.8614 107.87ZM34.5983 36.1987L91.0983 78.6987L92.9017 76.3013L36.4017 33.8013L34.5983 36.1987ZM93.5 77.5V16H90.5V77.5H93.5ZM90.7472 16.825L131.247 78.325L133.753 76.675L93.2528 15.175L90.7472 16.825ZM133.967 77.8152L145.467 24.3152L142.533 23.6848L131.033 77.1848L133.967 77.8152ZM142.54 24.3457L157.429 87.2091L160.348 86.5177L145.46 23.6543L142.54 24.3457Z" fill="#E3D18F"/>
<path d="M75.5335 158.213L75.7127 145.967L63.4665 145.787L63.2873 158.033L75.5335 158.213ZM19 100L19.249 98.5208L14.7346 97.761L17.9239 101.045L19 100ZM69.5 108.5L69.251 109.979L72.0553 110.451L70.8614 107.87L69.5 108.5ZM35.5 35L36.4017 33.8013L34.1386 35.6298L35.5 35ZM92 77.5L91.0983 78.6987L93.5 80.5053V77.5H92ZM92 16L93.2528 15.175L90.5 10.9949V16H92ZM132.5 77.5L131.247 78.325L133.215 81.3126L133.967 77.8152L132.5 77.5ZM144 24L145.46 23.6543L142.533 23.6848L144 24ZM162 100L166.97 83.4079L150.116 87.3997L162 100ZM70.5761 150.955L20.0761 98.955L17.9239 101.045L68.4239 153.045L70.5761 150.955ZM18.751 101.479L69.251 109.979L69.749 107.021L19.249 98.5208L18.751 101.479ZM70.8614 107.87L36.8614 34.3702L34.1386 35.6298L68.1386 109.13L70.8614 107.87ZM34.5983 36.1987L91.0983 78.6987L92.9017 76.3013L36.4017 33.8013L34.5983 36.1987ZM93.5 77.5V16H90.5V77.5H93.5ZM90.7472 16.825L131.247 78.325L133.753 76.675L93.2528 15.175L90.7472 16.825ZM133.967 77.8152L145.467 24.3152L142.533 23.6848L131.033 77.1848L133.967 77.8152ZM142.54 24.3457L157.429 87.2091L160.348 86.5177L145.46 23.6543L142.54 24.3457Z" fill="#9D4747" fill-opacity="0.2"/>
</svg>
