<svg width="71" height="77" viewBox="0 0 71 77" fill="none" xmlns="http://www.w3.org/2000/svg">
<path d="M54.6622 50.4144L44.7345 66.7295C41.3758 72.249 34.1537 74.0069 28.6341 70.6482L15.0967 62.4108C10.7817 59.7851 8.63887 54.7128 9.76548 49.7882L12.45 38.0554C13.0761 35.3155 15.3808 33.3368 18.182 33.1304L22.9121 32.7812L26.0062 27.6964C22.7137 23.2021 22.4312 17.0845 25.3457 12.2948C29.3183 5.76628 37.8617 3.68695 44.3901 7.65949C50.9186 11.632 52.9981 20.1754 49.0255 26.7039C47.0695 29.9184 43.9196 32.1274 40.3962 32.9743C41.4833 34.0418 42.0222 35.5548 41.9383 37.076C42.1134 37.0226 42.2908 36.9786 42.4703 36.9436C43.9307 36.6613 45.4548 37.0134 46.6525 37.9068C48.0772 38.9713 48.7991 40.7037 48.7026 42.4461C48.8777 42.3927 49.0551 42.3486 49.2346 42.3137C50.695 42.0314 52.2192 42.3835 53.4168 43.2769C55.5709 44.8869 56.1184 48.0212 54.6622 50.4144ZM43.0186 65.6854L52.9463 49.3703C53.87 47.8522 53.5488 45.8839 52.2147 44.8873C51.459 44.3208 50.5351 44.1082 49.6177 44.2867C48.7108 44.4605 47.9167 45.0135 47.4371 45.8017L44.0958 51.2927C43.8077 51.7663 43.1894 51.9168 42.7158 51.6286C42.2422 51.3404 42.0917 50.7221 42.3799 50.2485L45.7211 44.7575L46.182 44.0002C47.1057 42.4821 46.7845 40.5139 45.4504 39.5172C44.6946 38.9507 43.7708 38.7381 42.8533 38.9166C41.9465 39.0905 41.1524 39.6434 40.6728 40.4316L37.3315 45.9226C37.0433 46.3962 36.425 46.5467 35.9515 46.2585C35.4779 45.9704 35.3274 45.352 35.6155 44.8785L38.9568 39.3875L39.4176 38.6301C40.3414 37.1121 40.0201 35.1438 38.6861 34.1471C37.9303 33.5807 37.0065 33.368 36.089 33.5465C35.1822 33.7204 34.388 34.2734 33.9084 35.0615L30.5672 40.5525C30.279 41.0261 29.6607 41.1766 29.1871 40.8884C28.7135 40.6003 28.563 39.982 28.8512 39.5084L39.8926 21.363C40.8164 19.8449 40.4951 17.8767 39.1611 16.88C38.4046 16.3147 37.4815 16.1009 36.564 16.2794C35.6571 16.4533 34.863 17.0062 34.3834 17.7944L18.791 43.4189C18.5028 43.8925 17.8845 44.043 17.4109 43.7548C16.9374 43.4667 16.7869 42.8483 17.075 42.3748L21.6296 34.8898L18.3306 35.1335C16.4132 35.2756 14.8375 36.6288 14.4088 38.5029L11.7236 50.2369C10.7899 54.3165 12.5663 58.5199 16.1412 60.6952L29.6787 68.9327C34.2518 71.7153 40.2357 70.2588 43.0186 65.6854ZM36.1906 31.3103C40.6159 31.6785 44.9652 29.5128 47.3096 25.66C50.7065 20.0775 48.9286 12.7725 43.3461 9.37552C37.7635 5.97856 30.4587 7.75662 27.0618 13.3391C24.7174 17.1919 24.7927 22.0501 27.1534 25.8111L28.5184 23.5678C27.1663 20.679 27.338 17.2645 29.0065 14.5224C31.7512 10.0118 37.6534 8.57622 42.1629 11.3202C46.6723 14.0642 48.1098 19.966 45.3651 24.4766C43.6966 27.2186 40.7428 28.9403 37.5558 29.067L36.1907 31.3104L36.1906 31.3103ZM38.8943 26.8672C40.8511 26.4104 42.582 25.1861 43.6491 23.4324C45.8174 19.8691 44.6821 15.2045 41.1187 13.0362C37.5553 10.8679 32.8908 12.0032 30.7225 15.5666C29.6561 17.3191 29.3634 19.4203 29.8571 21.3681L32.6672 16.75C33.4398 15.4802 34.7207 14.5886 36.181 14.3062C37.6415 14.0239 39.1656 14.376 40.3633 15.2694C42.5171 16.8794 43.0646 20.0137 41.6083 22.4069L38.8943 26.8672Z" fill="#535757"/>
<path d="M47.3097 25.6599C44.9653 29.5127 40.6158 31.6784 36.1907 31.3102L37.5557 29.0669C40.7427 28.9403 43.6965 27.2185 45.365 24.4765C48.1097 19.9659 46.6722 14.0641 42.1628 11.3201C37.6533 8.57615 31.7511 10.0118 29.0064 14.5224C27.3379 17.2644 27.1662 20.679 28.5183 23.5677L27.1533 25.811C24.7926 22.0499 24.7173 17.1918 27.0617 13.339C30.4586 7.75656 37.7636 5.97845 43.3461 9.37541C48.9287 12.7724 50.7066 20.0774 47.3097 25.6599Z" fill="white"/>
<path d="M52.9463 49.3703L43.0186 65.6854C40.2357 70.2588 34.2518 71.7153 29.6784 68.9323L16.1408 60.6948C12.566 58.5195 10.7896 54.3161 11.7233 50.2365L14.4084 38.5025C14.8372 36.6285 16.413 35.2752 18.3303 35.1331L21.6292 34.8895L17.0747 42.3744C16.7865 42.848 16.937 43.4663 17.4106 43.7545C17.8842 44.0426 18.5025 43.8921 18.7906 43.4186L34.3831 17.7941C34.8627 17.0059 35.6569 16.453 36.5636 16.279C37.4811 16.1005 38.4043 16.3144 39.1607 16.8796C40.4948 17.8763 40.8159 19.8447 39.8923 21.3626L28.8509 39.508C28.5627 39.9816 28.7132 40.5999 29.1868 40.8881C29.6603 41.1763 30.2787 41.0258 30.5668 40.5522L33.908 35.0613C34.3876 34.2731 35.1819 33.7202 36.0886 33.5463C37.0061 33.3678 37.93 33.5805 38.6857 34.1469C40.0197 35.1435 40.3409 37.1119 39.4172 38.6299L38.9564 39.3872L35.6151 44.8782C35.327 45.3518 35.4775 45.9701 35.951 46.2583C36.4246 46.5464 37.0429 46.3959 37.3311 45.9224L40.6724 40.4314C41.152 39.6432 41.9462 39.0903 42.8529 38.9163C43.7704 38.7378 44.6943 38.9505 45.45 39.5169C46.784 40.5136 47.1052 42.482 46.1816 43.9999L45.7207 44.7573L42.3795 50.2483C42.0913 50.7219 42.2418 51.3402 42.7154 51.6283C43.1889 51.9165 43.8073 51.766 44.0954 51.2924L47.4367 45.8014C47.9163 45.0133 48.7105 44.4604 49.6173 44.2864C50.5347 44.1079 51.4586 44.3206 52.2143 44.887C53.5488 45.8839 53.87 47.8523 52.9463 49.3703Z" fill="white"/>
<path d="M43.6491 23.4324C42.582 25.1861 40.851 26.4105 38.8943 26.8671L41.6084 22.4069C43.0646 20.0137 42.517 16.8794 40.3633 15.2694C39.1656 14.376 37.6415 14.0239 36.1811 14.3062C34.7207 14.5886 33.4399 15.4801 32.6672 16.75L29.8571 21.3681C29.3635 19.4202 29.6561 17.3191 30.7225 15.5666C32.8908 12.0032 37.5554 10.8679 41.1187 13.0362C44.6821 15.2045 45.8174 19.869 43.6491 23.4324Z" fill="#C2E95D"/>
</svg>
